<?xml version="1.0" encoding="utf-8"?>
<svg viewBox="70.728 114.426 332.251 128" xmlns="http://www.w3.org/2000/svg">
  <rect x="70.728" y="114.426" width="128" height="128" style="fill: rgb(255, 255, 255); stroke: rgb(204, 204, 204);"/>
  <path d="M 120.211 189.104 Q 117.285 189.104 114.758 188.04 Q 112.231 186.976 110.331 185.095 Q 108.431 183.214 107.367 180.725 Q 106.303 178.236 106.303 175.386 Q 106.303 172.536 107.348 170.047 Q 108.393 167.558 110.293 165.677 Q 112.193 163.796 114.701 162.732 Q 117.209 161.668 120.135 161.668 Q 123.289 161.668 126.101 162.884 Q 128.913 164.1 130.851 166.266 L 128.115 168.926 Q 126.671 167.216 124.562 166.285 Q 122.453 165.354 120.135 165.354 Q 118.045 165.354 116.278 166.114 Q 114.511 166.874 113.181 168.223 Q 111.851 169.572 111.11 171.396 Q 110.369 173.22 110.369 175.386 Q 110.369 177.514 111.11 179.357 Q 111.851 181.2 113.2 182.568 Q 114.549 183.936 116.335 184.696 Q 118.121 185.456 120.211 185.456 Q 122.567 185.456 124.486 184.468 Q 126.405 183.48 127.621 181.751 Q 128.837 180.022 129.103 177.856 L 120.249 177.856 L 120.249 174.36 L 133.283 174.36 L 133.283 175.728 Q 133.283 178.578 132.295 181.01 Q 131.307 183.442 129.54 185.266 Q 127.773 187.09 125.379 188.097 Q 122.985 189.104 120.211 189.104 Z" style="fill: rgb(225, 0, 152); white-space: pre;"/>
  <path d="M 158.777 189.56 L 156.953 187.356 Q 155.471 188.154 153.761 188.629 Q 152.051 189.104 150.189 189.104 Q 147.263 189.104 144.736 188.059 Q 142.209 187.014 140.309 185.133 Q 138.409 183.252 137.364 180.763 Q 136.319 178.274 136.319 175.386 Q 136.319 172.498 137.364 170.009 Q 138.409 167.52 140.309 165.639 Q 142.209 163.758 144.736 162.713 Q 147.263 161.668 150.189 161.668 Q 153.077 161.668 155.585 162.713 Q 158.093 163.758 159.993 165.639 Q 161.893 167.52 162.957 170.009 Q 164.021 172.498 164.021 175.386 Q 164.021 178.312 162.881 180.896 Q 161.741 183.48 159.765 185.342 L 162.501 188.686 Z M 150.189 185.418 Q 151.367 185.418 152.45 185.152 Q 153.533 184.886 154.483 184.354 L 151.063 180.212 L 154.825 179.3 L 157.295 182.302 Q 158.549 180.972 159.252 179.186 Q 159.955 177.4 159.955 175.386 Q 159.955 173.22 159.195 171.396 Q 158.435 169.572 157.105 168.223 Q 155.775 166.874 154.008 166.114 Q 152.241 165.354 150.189 165.354 Q 148.099 165.354 146.313 166.114 Q 144.527 166.874 143.197 168.223 Q 141.867 169.572 141.126 171.396 Q 140.385 173.22 140.385 175.386 Q 140.385 177.514 141.126 179.357 Q 141.867 181.2 143.197 182.549 Q 144.527 183.898 146.313 184.658 Q 148.099 185.418 150.189 185.418 Z" style="fill: rgb(225, 0, 152); white-space: pre;"/>
  <path d="M 168.232 188.686 L 168.232 162.086 L 172.222 162.086 L 172.222 185.152 L 187.536 185.152 L 187.536 188.686 Z" style="fill: rgb(225, 0, 152); white-space: pre;"/>
  <path d="M 113.786 230.809 L 113.786 211.771 L 116.598 211.771 L 116.598 230.809 Z M 115.192 208.123 Q 114.432 208.123 113.862 207.553 Q 113.292 206.983 113.292 206.185 Q 113.292 205.425 113.862 204.874 Q 114.432 204.323 115.192 204.323 Q 115.99 204.323 116.541 204.874 Q 117.092 205.425 117.092 206.223 Q 117.092 206.983 116.541 207.553 Q 115.99 208.123 115.192 208.123 Z" style="fill: rgb(204, 204, 204); white-space: pre;"/>
  <path d="M 121.38 230.809 L 121.38 211.771 L 124.192 211.771 L 124.192 214.013 Q 126.434 211.391 130.196 211.391 Q 132.362 211.391 134.015 212.322 Q 135.668 213.253 136.599 214.906 Q 137.53 216.559 137.53 218.763 L 137.53 230.809 L 134.756 230.809 L 134.756 219.333 Q 134.756 216.787 133.331 215.324 Q 131.906 213.861 129.436 213.861 Q 127.726 213.861 126.396 214.621 Q 125.066 215.381 124.192 216.787 L 124.192 230.809 Z" style="fill: rgb(204, 204, 204); white-space: pre;"/>
  <path d="M 151.218 230.809 L 151.218 207.743 L 141.87 207.743 L 141.87 204.209 L 164.556 204.209 L 164.556 207.743 L 155.208 207.743 L 155.208 230.809 Z" style="fill: rgb(49, 120, 198); white-space: pre;"/>
  <path d="M 177.28 231.189 Q 174.088 231.189 171.124 229.935 Q 168.16 228.681 165.88 226.401 L 168.312 223.589 Q 170.478 225.717 172.739 226.743 Q 175 227.769 177.47 227.769 Q 179.408 227.769 180.871 227.218 Q 182.334 226.667 183.132 225.641 Q 183.93 224.615 183.93 223.323 Q 183.93 221.537 182.676 220.587 Q 181.422 219.637 178.534 219.143 L 174.088 218.421 Q 170.44 217.775 168.635 216.065 Q 166.83 214.355 166.83 211.505 Q 166.83 209.225 168.046 207.496 Q 169.262 205.767 171.485 204.817 Q 173.708 203.867 176.634 203.867 Q 179.522 203.867 182.315 204.798 Q 185.108 205.729 187.35 207.477 L 185.146 210.517 Q 180.852 207.249 176.444 207.249 Q 174.696 207.249 173.404 207.743 Q 172.112 208.237 171.39 209.13 Q 170.668 210.023 170.668 211.201 Q 170.668 212.835 171.77 213.69 Q 172.872 214.545 175.418 214.925 L 179.712 215.647 Q 183.93 216.331 185.906 218.117 Q 187.882 219.903 187.882 223.019 Q 187.882 225.451 186.552 227.294 Q 185.222 229.137 182.828 230.163 Q 180.434 231.189 177.28 231.189 Z" style="fill: rgb(49, 120, 198); white-space: pre;"/>
  <path d="M 224.807 158.395 L 235.827 131.795 L 239.361 131.795 L 250.305 158.395 L 247.113 158.395 L 243.769 150.035 L 231.229 150.035 L 227.847 158.395 Z M 232.255 147.527 L 242.743 147.527 L 237.499 134.493 Z" transform="matrix(1, 0, 0, 1, -11.456604, -3.90916)" style="fill: rgb(204, 204, 204); white-space: pre;"/>
  <path d="M 263.496 158.775 Q 261.026 158.775 259.696 157.597 Q 258.366 156.419 258.366 154.177 L 258.366 141.751 L 254.262 141.751 L 254.262 139.357 L 258.366 139.357 L 258.366 134.531 L 261.14 133.809 L 261.14 139.357 L 266.878 139.357 L 266.878 141.751 L 261.14 141.751 L 261.14 153.455 Q 261.14 154.975 261.824 155.64 Q 262.508 156.305 264.066 156.305 Q 264.864 156.305 265.491 156.191 Q 266.118 156.077 266.84 155.811 L 266.84 158.281 Q 266.118 158.547 265.225 158.661 Q 264.332 158.775 263.496 158.775 Z" transform="matrix(1, 0, 0, 1, -11.456604, -3.90916)" style="fill: rgb(204, 204, 204); white-space: pre;"/>
  <path d="M 270.558 166.527 Q 270.026 166.527 269.551 166.47 Q 269.076 166.413 268.772 166.337 L 268.772 163.791 Q 269.418 163.943 270.368 163.943 Q 272.876 163.943 274.168 160.979 L 275.308 158.357 L 267.556 139.357 L 270.672 139.357 L 276.828 154.975 L 283.478 139.357 L 286.518 139.357 L 277.018 161.359 Q 276.22 163.183 275.308 164.323 Q 274.396 165.463 273.237 165.995 Q 272.078 166.527 270.558 166.527 Z" transform="matrix(1, 0, 0, 1, -11.456604, -3.90916)" style="fill: rgb(204, 204, 204); white-space: pre;"/>
  <path d="M 288.635 166.147 L 288.635 139.357 L 291.409 139.357 L 291.409 141.409 Q 293.879 139.053 297.565 139.053 Q 300.263 139.053 302.429 140.364 Q 304.595 141.675 305.868 143.879 Q 307.141 146.083 307.141 148.857 Q 307.141 151.631 305.868 153.854 Q 304.595 156.077 302.429 157.388 Q 300.263 158.699 297.527 158.699 Q 295.855 158.699 294.297 158.129 Q 292.739 157.559 291.447 156.495 L 291.447 166.147 Z M 297.299 156.229 Q 299.313 156.229 300.909 155.26 Q 302.505 154.291 303.436 152.638 Q 304.367 150.985 304.367 148.895 Q 304.367 146.805 303.436 145.133 Q 302.505 143.461 300.909 142.492 Q 299.313 141.523 297.299 141.523 Q 295.513 141.523 293.974 142.226 Q 292.435 142.929 291.447 144.183 L 291.447 153.607 Q 292.435 154.823 293.993 155.526 Q 295.551 156.229 297.299 156.229 Z" transform="matrix(1, 0, 0, 1, -11.456604, -3.90916)" style="fill: rgb(204, 204, 204); white-space: pre;"/>
  <path d="M 319.487 158.737 Q 316.751 158.737 314.528 157.426 Q 312.305 156.115 310.994 153.873 Q 309.683 151.631 309.683 148.857 Q 309.683 146.121 310.937 143.898 Q 312.191 141.675 314.319 140.364 Q 316.447 139.053 319.069 139.053 Q 321.615 139.053 323.648 140.364 Q 325.681 141.675 326.878 143.898 Q 328.075 146.121 328.075 148.857 L 328.075 149.731 L 312.457 149.731 Q 312.685 151.593 313.654 153.075 Q 314.623 154.557 316.181 155.412 Q 317.739 156.267 319.601 156.267 Q 321.083 156.267 322.489 155.811 Q 323.895 155.355 324.845 154.519 L 326.593 156.381 Q 324.997 157.559 323.268 158.148 Q 321.539 158.737 319.487 158.737 Z M 312.533 147.489 L 325.263 147.489 Q 325.035 145.779 324.142 144.43 Q 323.249 143.081 321.919 142.302 Q 320.589 141.523 318.993 141.523 Q 317.359 141.523 315.991 142.283 Q 314.623 143.043 313.711 144.392 Q 312.799 145.741 312.533 147.489 Z" transform="matrix(1, 0, 0, 1, -11.456604, -3.90916)" style="fill: rgb(204, 204, 204); white-space: pre;"/>
  <path d="M 330.955 148.971 L 330.955 146.463 L 344.217 146.463 L 344.217 148.971 Z" transform="matrix(1, 0, 0, 1, -11.456604, -3.90916)" style="fill: rgb(204, 204, 204); white-space: pre;"/>
  <path d="M 354.051 158.775 Q 351.695 158.775 349.624 157.996 Q 347.553 157.217 346.033 155.811 L 347.743 153.987 Q 349.073 155.203 350.669 155.868 Q 352.265 156.533 353.937 156.533 Q 356.217 156.533 357.661 155.583 Q 359.105 154.633 359.105 153.113 Q 359.105 151.859 358.25 151.156 Q 357.395 150.453 355.571 150.187 L 352.265 149.731 Q 349.415 149.313 348.028 148.021 Q 346.641 146.729 346.641 144.525 Q 346.641 142.929 347.553 141.675 Q 348.465 140.421 350.08 139.699 Q 351.695 138.977 353.785 138.977 Q 355.875 138.977 357.699 139.585 Q 359.523 140.193 361.271 141.485 L 359.789 143.385 Q 358.193 142.283 356.692 141.77 Q 355.191 141.257 353.633 141.257 Q 351.657 141.257 350.441 142.131 Q 349.225 143.005 349.225 144.411 Q 349.225 145.703 350.061 146.368 Q 350.897 147.033 352.759 147.299 L 356.065 147.755 Q 358.915 148.135 360.34 149.427 Q 361.765 150.719 361.765 152.961 Q 361.765 154.595 360.739 155.925 Q 359.713 157.255 357.984 158.015 Q 356.255 158.775 354.051 158.775 Z" transform="matrix(1, 0, 0, 1, -11.456604, -3.90916)" style="fill: rgb(204, 204, 204); white-space: pre;"/>
  <path d="M 370.608 158.737 Q 368.518 158.737 366.941 158.015 Q 365.364 157.293 364.471 156.001 Q 363.578 154.709 363.578 152.999 Q 363.578 150.301 365.63 148.743 Q 367.682 147.185 371.178 147.185 Q 374.256 147.185 376.764 148.477 L 376.764 145.969 Q 376.764 143.689 375.472 142.53 Q 374.18 141.371 371.71 141.371 Q 370.304 141.371 368.879 141.77 Q 367.454 142.169 365.744 143.043 L 364.68 140.877 Q 366.732 139.889 368.48 139.433 Q 370.228 138.977 371.976 138.977 Q 375.586 138.977 377.543 140.687 Q 379.5 142.397 379.5 145.589 L 379.5 158.395 L 376.764 158.395 L 376.764 156.533 Q 375.472 157.635 373.933 158.186 Q 372.394 158.737 370.608 158.737 Z M 366.276 152.923 Q 366.276 154.519 367.625 155.526 Q 368.974 156.533 371.102 156.533 Q 372.812 156.533 374.218 156.001 Q 375.624 155.469 376.764 154.329 L 376.764 150.757 Q 375.586 149.959 374.256 149.598 Q 372.926 149.237 371.254 149.237 Q 368.974 149.237 367.625 150.244 Q 366.276 151.251 366.276 152.923 Z" transform="matrix(1, 0, 0, 1, -11.456604, -3.90916)" style="fill: rgb(204, 204, 204); white-space: pre;"/>
  <path d="M 385.879 158.395 L 385.879 141.751 L 381.395 141.751 L 381.395 139.357 L 385.879 139.357 L 385.879 135.747 Q 385.879 132.935 387.399 131.453 Q 388.919 129.971 391.769 129.971 Q 392.529 129.971 393.137 130.047 Q 393.745 130.123 394.315 130.313 L 394.315 132.821 Q 393.669 132.631 393.137 132.536 Q 392.605 132.441 391.959 132.441 Q 390.287 132.441 389.47 133.258 Q 388.653 134.075 388.653 135.823 L 388.653 139.357 L 394.315 139.357 L 394.315 141.751 L 388.653 141.751 L 388.653 158.395 Z" transform="matrix(1, 0, 0, 1, -11.456604, -3.90916)" style="fill: rgb(204, 204, 204); white-space: pre;"/>
  <path d="M 404.831 158.737 Q 402.095 158.737 399.872 157.426 Q 397.649 156.115 396.338 153.873 Q 395.027 151.631 395.027 148.857 Q 395.027 146.121 396.281 143.898 Q 397.535 141.675 399.663 140.364 Q 401.791 139.053 404.413 139.053 Q 406.959 139.053 408.992 140.364 Q 411.025 141.675 412.222 143.898 Q 413.419 146.121 413.419 148.857 L 413.419 149.731 L 397.801 149.731 Q 398.029 151.593 398.998 153.075 Q 399.967 154.557 401.525 155.412 Q 403.083 156.267 404.945 156.267 Q 406.427 156.267 407.833 155.811 Q 409.239 155.355 410.189 154.519 L 411.937 156.381 Q 410.341 157.559 408.612 158.148 Q 406.883 158.737 404.831 158.737 Z M 397.877 147.489 L 410.607 147.489 Q 410.379 145.779 409.486 144.43 Q 408.593 143.081 407.263 142.302 Q 405.933 141.523 404.337 141.523 Q 402.703 141.523 401.335 142.283 Q 399.967 143.043 399.055 144.392 Q 398.143 145.741 397.877 147.489 Z" transform="matrix(1, 0, 0, 1, -11.456604, -3.90916)" style="fill: rgb(204, 204, 204); white-space: pre;"/>
  <path d="M 230.545 192.595 L 225.187 173.557 L 227.961 173.557 L 232.065 188.757 L 236.815 173.557 L 239.323 173.557 L 244.035 188.757 L 248.177 173.557 L 250.837 173.557 L 245.441 192.595 L 242.743 192.595 L 238.031 177.357 L 233.281 192.595 Z" transform="matrix(1, 0, 0, 1, -11.456604, -3.90916)" style="fill: rgb(204, 204, 204); white-space: pre;"/>
  <path d="M 259.069 192.937 Q 256.979 192.937 255.402 192.215 Q 253.825 191.493 252.932 190.201 Q 252.039 188.909 252.039 187.199 Q 252.039 184.501 254.091 182.943 Q 256.143 181.385 259.639 181.385 Q 262.717 181.385 265.225 182.677 L 265.225 180.169 Q 265.225 177.889 263.933 176.73 Q 262.641 175.571 260.171 175.571 Q 258.765 175.571 257.34 175.97 Q 255.915 176.369 254.205 177.243 L 253.141 175.077 Q 255.193 174.089 256.941 173.633 Q 258.689 173.177 260.437 173.177 Q 264.047 173.177 266.004 174.887 Q 267.961 176.597 267.961 179.789 L 267.961 192.595 L 265.225 192.595 L 265.225 190.733 Q 263.933 191.835 262.394 192.386 Q 260.855 192.937 259.069 192.937 Z M 254.737 187.123 Q 254.737 188.719 256.086 189.726 Q 257.435 190.733 259.563 190.733 Q 261.273 190.733 262.679 190.201 Q 264.085 189.669 265.225 188.529 L 265.225 184.957 Q 264.047 184.159 262.717 183.798 Q 261.387 183.437 259.715 183.437 Q 257.435 183.437 256.086 184.444 Q 254.737 185.451 254.737 187.123 Z" transform="matrix(1, 0, 0, 1, -11.456604, -3.90916)" style="fill: rgb(204, 204, 204); white-space: pre;"/>
  <path d="M 272.589 200.727 Q 272.057 200.727 271.582 200.67 Q 271.107 200.613 270.803 200.537 L 270.803 197.991 Q 271.449 198.143 272.399 198.143 Q 274.907 198.143 276.199 195.179 L 277.339 192.557 L 269.587 173.557 L 272.703 173.557 L 278.859 189.175 L 285.509 173.557 L 288.549 173.557 L 279.049 195.559 Q 278.251 197.383 277.339 198.523 Q 276.427 199.663 275.268 200.195 Q 274.109 200.727 272.589 200.727 Z" transform="matrix(1, 0, 0, 1, -11.456604, -3.90916)" style="fill: rgb(204, 204, 204); white-space: pre;"/>
  <path d="M 301.824 192.975 Q 299.354 192.975 298.024 191.797 Q 296.694 190.619 296.694 188.377 L 296.694 175.951 L 292.59 175.951 L 292.59 173.557 L 296.694 173.557 L 296.694 168.731 L 299.468 168.009 L 299.468 173.557 L 305.206 173.557 L 305.206 175.951 L 299.468 175.951 L 299.468 187.655 Q 299.468 189.175 300.152 189.84 Q 300.836 190.505 302.394 190.505 Q 303.192 190.505 303.819 190.391 Q 304.446 190.277 305.168 190.011 L 305.168 192.481 Q 304.446 192.747 303.553 192.861 Q 302.66 192.975 301.824 192.975 Z" transform="matrix(1, 0, 0, 1, -11.456604, -3.90916)" style="fill: rgb(204, 204, 204); white-space: pre;"/>
  <path d="M 316.177 192.975 Q 313.479 192.975 311.256 191.664 Q 309.033 190.353 307.741 188.111 Q 306.449 185.869 306.449 183.095 Q 306.449 180.321 307.741 178.079 Q 309.033 175.837 311.256 174.526 Q 313.479 173.215 316.177 173.215 Q 318.913 173.215 321.117 174.526 Q 323.321 175.837 324.613 178.079 Q 325.905 180.321 325.905 183.095 Q 325.905 185.869 324.613 188.111 Q 323.321 190.353 321.117 191.664 Q 318.913 192.975 316.177 192.975 Z M 316.177 190.467 Q 318.115 190.467 319.692 189.479 Q 321.269 188.491 322.2 186.819 Q 323.131 185.147 323.131 183.095 Q 323.131 181.005 322.2 179.352 Q 321.269 177.699 319.692 176.711 Q 318.115 175.723 316.177 175.723 Q 314.239 175.723 312.662 176.711 Q 311.085 177.699 310.154 179.352 Q 309.223 181.005 309.223 183.095 Q 309.223 185.147 310.154 186.819 Q 311.085 188.491 312.662 189.479 Q 314.239 190.467 316.177 190.467 Z" transform="matrix(1, 0, 0, 1, -11.456604, -3.90916)" style="fill: rgb(204, 204, 204); white-space: pre;"/>
  <path d="M 336.483 192.595 L 331.125 173.557 L 333.899 173.557 L 338.003 188.757 L 342.753 173.557 L 345.261 173.557 L 349.973 188.757 L 354.115 173.557 L 356.775 173.557 L 351.379 192.595 L 348.681 192.595 L 343.969 177.357 L 339.219 192.595 Z" transform="matrix(1, 0, 0, 1, -11.456604, -3.90916)" style="fill: rgb(204, 204, 204); white-space: pre;"/>
  <path d="M 359.198 192.595 L 359.198 173.557 L 362.01 173.557 L 362.01 176.255 Q 362.884 174.773 364.233 173.956 Q 365.582 173.139 367.33 173.139 Q 368.318 173.139 369.116 173.405 L 369.116 175.989 Q 368.622 175.799 368.128 175.723 Q 367.634 175.647 367.14 175.647 Q 365.392 175.647 364.081 176.654 Q 362.77 177.661 362.01 179.561 L 362.01 192.595 Z" transform="matrix(1, 0, 0, 1, -11.456604, -3.90916)" style="fill: rgb(204, 204, 204); white-space: pre;"/>
  <path d="M 371.846 192.595 L 371.846 173.557 L 374.658 173.557 L 374.658 192.595 Z M 373.252 169.909 Q 372.492 169.909 371.922 169.339 Q 371.352 168.769 371.352 167.971 Q 371.352 167.211 371.922 166.66 Q 372.492 166.109 373.252 166.109 Q 374.05 166.109 374.601 166.66 Q 375.152 167.211 375.152 168.009 Q 375.152 168.769 374.601 169.339 Q 374.05 169.909 373.252 169.909 Z" transform="matrix(1, 0, 0, 1, -11.456604, -3.90916)" style="fill: rgb(204, 204, 204); white-space: pre;"/>
  <path d="M 386.426 192.975 Q 383.956 192.975 382.626 191.797 Q 381.296 190.619 381.296 188.377 L 381.296 175.951 L 377.192 175.951 L 377.192 173.557 L 381.296 173.557 L 381.296 168.731 L 384.07 168.009 L 384.07 173.557 L 389.808 173.557 L 389.808 175.951 L 384.07 175.951 L 384.07 187.655 Q 384.07 189.175 384.754 189.84 Q 385.438 190.505 386.996 190.505 Q 387.794 190.505 388.421 190.391 Q 389.048 190.277 389.77 190.011 L 389.77 192.481 Q 389.048 192.747 388.155 192.861 Q 387.262 192.975 386.426 192.975 Z" transform="matrix(1, 0, 0, 1, -11.456604, -3.90916)" style="fill: rgb(204, 204, 204); white-space: pre;"/>
  <path d="M 400.862 192.937 Q 398.126 192.937 395.903 191.626 Q 393.68 190.315 392.369 188.073 Q 391.058 185.831 391.058 183.057 Q 391.058 180.321 392.312 178.098 Q 393.566 175.875 395.694 174.564 Q 397.822 173.253 400.444 173.253 Q 402.99 173.253 405.023 174.564 Q 407.056 175.875 408.253 178.098 Q 409.45 180.321 409.45 183.057 L 409.45 183.931 L 393.832 183.931 Q 394.06 185.793 395.029 187.275 Q 395.998 188.757 397.556 189.612 Q 399.114 190.467 400.976 190.467 Q 402.458 190.467 403.864 190.011 Q 405.27 189.555 406.22 188.719 L 407.968 190.581 Q 406.372 191.759 404.643 192.348 Q 402.914 192.937 400.862 192.937 Z M 393.908 181.689 L 406.638 181.689 Q 406.41 179.979 405.517 178.63 Q 404.624 177.281 403.294 176.502 Q 401.964 175.723 400.368 175.723 Q 398.734 175.723 397.366 176.483 Q 395.998 177.243 395.086 178.592 Q 394.174 179.941 393.908 181.689 Z" transform="matrix(1, 0, 0, 1, -11.456604, -3.90916)" style="fill: rgb(204, 204, 204); white-space: pre;"/>
  <path d="M 240.121 158.813 Q 237.195 158.813 234.668 157.749 Q 232.141 156.685 230.241 154.804 Q 228.341 152.923 227.277 150.434 Q 226.213 147.945 226.213 145.095 Q 226.213 142.245 227.258 139.756 Q 228.303 137.267 230.203 135.386 Q 232.103 133.505 234.611 132.441 Q 237.119 131.377 240.045 131.377 Q 243.199 131.377 246.011 132.593 Q 248.823 133.809 250.761 135.975 L 248.025 138.635 Q 246.581 136.925 244.472 135.994 Q 242.363 135.063 240.045 135.063 Q 237.955 135.063 236.188 135.823 Q 234.421 136.583 233.091 137.932 Q 231.761 139.281 231.02 141.105 Q 230.279 142.929 230.279 145.095 Q 230.279 147.223 231.02 149.066 Q 231.761 150.909 233.11 152.277 Q 234.459 153.645 236.245 154.405 Q 238.031 155.165 240.121 155.165 Q 242.477 155.165 244.396 154.177 Q 246.315 153.189 247.531 151.46 Q 248.747 149.731 249.013 147.565 L 240.159 147.565 L 240.159 144.069 L 253.193 144.069 L 253.193 145.437 Q 253.193 148.287 252.205 150.719 Q 251.217 153.151 249.45 154.975 Q 247.683 156.799 245.289 157.806 Q 242.895 158.813 240.121 158.813 Z" transform="matrix(1, 0, 0, 1, -11.456604, 72.414482)" style="fill: rgb(204, 204, 204); white-space: pre;"/>
  <path d="M 256.413 158.395 L 256.413 139.053 L 260.213 139.053 L 260.213 141.523 Q 261.125 140.155 262.474 139.376 Q 263.823 138.597 265.533 138.597 Q 266.711 138.635 267.471 138.939 L 267.471 142.359 Q 266.939 142.131 266.369 142.036 Q 265.799 141.941 265.229 141.941 Q 263.557 141.941 262.265 142.834 Q 260.973 143.727 260.213 145.437 L 260.213 158.395 Z" transform="matrix(1, 0, 0, 1, -11.456604, 72.414482)" style="fill: rgb(204, 204, 204); white-space: pre;"/>
  <path d="M 275.328 158.737 Q 273.238 158.737 271.642 157.996 Q 270.046 157.255 269.134 155.925 Q 268.222 154.595 268.222 152.847 Q 268.222 150.111 270.312 148.534 Q 272.402 146.957 276.05 146.957 Q 278.9 146.957 281.332 148.059 L 281.332 146.007 Q 281.332 143.917 280.135 142.891 Q 278.938 141.865 276.62 141.865 Q 275.29 141.865 273.846 142.264 Q 272.402 142.663 270.616 143.499 L 269.21 140.649 Q 271.414 139.623 273.314 139.148 Q 275.214 138.673 277.152 138.673 Q 280.914 138.673 282.985 140.459 Q 285.056 142.245 285.056 145.551 L 285.056 158.395 L 281.332 158.395 L 281.332 156.723 Q 280.04 157.749 278.558 158.243 Q 277.076 158.737 275.328 158.737 Z M 271.87 152.771 Q 271.87 154.177 273.067 155.051 Q 274.264 155.925 276.202 155.925 Q 277.722 155.925 278.995 155.469 Q 280.268 155.013 281.332 154.063 L 281.332 150.795 Q 280.23 150.149 279.033 149.864 Q 277.836 149.579 276.354 149.579 Q 274.264 149.579 273.067 150.434 Q 271.87 151.289 271.87 152.771 Z" transform="matrix(1, 0, 0, 1, -11.456604, 72.414482)" style="fill: rgb(204, 204, 204); white-space: pre;"/>
  <path d="M 288.921 166.147 L 288.921 139.053 L 292.683 139.053 L 292.683 140.915 Q 295.115 138.749 298.611 138.749 Q 301.347 138.749 303.57 140.079 Q 305.793 141.409 307.085 143.651 Q 308.377 145.893 308.377 148.705 Q 308.377 151.517 307.066 153.778 Q 305.755 156.039 303.532 157.369 Q 301.309 158.699 298.535 158.699 Q 296.939 158.699 295.457 158.186 Q 293.975 157.673 292.721 156.723 L 292.721 166.147 Z M 298.117 155.393 Q 299.979 155.393 301.442 154.519 Q 302.905 153.645 303.779 152.144 Q 304.653 150.643 304.653 148.743 Q 304.653 146.843 303.779 145.323 Q 302.905 143.803 301.442 142.929 Q 299.979 142.055 298.117 142.055 Q 296.483 142.055 295.077 142.663 Q 293.671 143.271 292.721 144.373 L 292.721 153.113 Q 293.671 154.177 295.096 154.785 Q 296.521 155.393 298.117 155.393 Z" transform="matrix(1, 0, 0, 1, -11.456604, 72.414482)" style="fill: rgb(204, 204, 204); white-space: pre;"/>
  <path d="M 311.483 158.395 L 311.483 131.795 L 315.283 130.959 L 315.283 141.029 Q 317.525 138.673 321.097 138.673 Q 323.339 138.673 325.03 139.623 Q 326.721 140.573 327.69 142.283 Q 328.659 143.993 328.659 146.235 L 328.659 158.395 L 324.859 158.395 L 324.859 146.881 Q 324.859 144.601 323.567 143.29 Q 322.275 141.979 320.033 141.979 Q 318.513 141.979 317.297 142.625 Q 316.081 143.271 315.283 144.487 L 315.283 158.395 Z" transform="matrix(1, 0, 0, 1, -11.456604, 72.414482)" style="fill: rgb(204, 204, 204); white-space: pre;"/>
  <path d="M 354.304 159.269 L 352.48 157.065 Q 350.998 157.863 349.288 158.338 Q 347.578 158.813 345.716 158.813 Q 342.79 158.813 340.263 157.768 Q 337.736 156.723 335.836 154.842 Q 333.936 152.961 332.891 150.472 Q 331.846 147.983 331.846 145.095 Q 331.846 142.207 332.891 139.718 Q 333.936 137.229 335.836 135.348 Q 337.736 133.467 340.263 132.422 Q 342.79 131.377 345.716 131.377 Q 348.604 131.377 351.112 132.422 Q 353.62 133.467 355.52 135.348 Q 357.42 137.229 358.484 139.718 Q 359.548 142.207 359.548 145.095 Q 359.548 148.021 358.408 150.605 Q 357.268 153.189 355.292 155.051 L 358.028 158.395 Z M 345.716 155.127 Q 346.894 155.127 347.977 154.861 Q 349.06 154.595 350.01 154.063 L 346.59 149.921 L 350.352 149.009 L 352.822 152.011 Q 354.076 150.681 354.779 148.895 Q 355.482 147.109 355.482 145.095 Q 355.482 142.929 354.722 141.105 Q 353.962 139.281 352.632 137.932 Q 351.302 136.583 349.535 135.823 Q 347.768 135.063 345.716 135.063 Q 343.626 135.063 341.84 135.823 Q 340.054 136.583 338.724 137.932 Q 337.394 139.281 336.653 141.105 Q 335.912 142.929 335.912 145.095 Q 335.912 147.223 336.653 149.066 Q 337.394 150.909 338.724 152.258 Q 340.054 153.607 341.84 154.367 Q 343.626 155.127 345.716 155.127 Z" transform="matrix(1, 0, 0, 1, -11.456604, 72.414482)" style="fill: rgb(204, 204, 204); white-space: pre;"/>
  <path d="M 363.26 158.395 L 363.26 131.795 L 367.25 131.795 L 367.25 154.861 L 382.564 154.861 L 382.564 158.395 Z" transform="matrix(1, 0, 0, 1, -11.456604, 72.414482)" style="fill: rgb(204, 204, 204); white-space: pre;"/>
</svg>